<?xml version="1.0" encoding="utf-8"?>

<!DOCTYPE svg PUBLIC "-//W3C//DTD SVG 1.1//EN" "http://www.w3.org/Graphics/SVG/1.1/DTD/svg11.dtd">
<svg version="1.1" id="Layer_1" xmlns="http://www.w3.org/2000/svg" xmlns:xlink="http://www.w3.org/1999/xlink" x="0px" y="0px"
	 viewBox="0 0 2210.5986 1585.3898" enable-background="new 0 0 2210.5986 1585.3898" xml:space="preserve">
<g>
	<path d="M25.6474,793.4296c3.8385,7.4154,7.5958,14.8743,11.5286,22.2394c26.9583,50.4857,59.5088,97.144,96.2023,141.0065
		c65.8274,78.6884,142.7308,144.4372,230.372,197.6736c2.9702,1.8042,3.7267,3.9907,3.868,7.2738
		c0.943,21.9207,0.185,43.9502,3.9276,65.7013c4.3645,25.366,17.6148,42.151,43.5268,49.2109
		c22.6975,6.1844,43.675,17.3257,65.2957,26.5665c21.5294,9.2015,43.1012,18.3524,65.907,24.026
		c15.5735,3.8745,31.3421,6.3873,47.361,3.0304c19.9461-4.1799,31.954-17.3323,39.0328-35.6476
		c1.8538-4.7965,3.3444-9.7715,4.5145-14.7784c0.6404-2.7407,1.3527-3.41,4.2625-2.8251
		c41.3158,8.3042,83.003,14.0212,125.0326,17.0316c4.4335,0.3176,5.4326,1.9032,6.0232,5.641
		c3.5468,22.4487,9.1821,44.241,20.9596,64.0071c11.4715,19.2526,27.7506,30.1735,50.7767,30.6768
		c23.832,0.5211,47.2326,5.787,70.9773,7.402c21.2441,1.4446,42.4791,2.6716,63.4228-3.2656
		c27.4915-7.7935,43.213-26.0544,48.785-53.6224c3.7736-18.6702,2.9874-37.4241,0.2909-56.1089
		c-0.8486-5.8806-0.532-8.8889,6.6743-10.0581c36.9423-5.9934,73.3356-14.6758,109.4021-24.5822
		c23.2177-6.3773,46.1774-13.7103,69.16-20.9111c3.9891-1.2498,4.631-0.5004,4.9136,3.3807
		c1.4436,19.8318,4.5067,39.3607,12.799,57.676c13.3867,29.5686,34.1779,41.3414,66.3228,37.4094
		c36.3982-4.4524,71.9418-12.6423,106.2076-25.7836c28.3556-10.8746,54.9807-24.7758,76.1387-47.3077
		c25.3727-27.0204,31.3016-58.3116,20.3055-93.288c-4.3713-13.9045-10.7888-26.8528-18.412-39.2007
		c-2.068-3.3494-1.8607-4.9767,1.7764-6.7899c53.4355-26.6384,105.4813-55.7697,155.9604-87.662
		c4.3679-2.7594,4.6759,0.0273,5.5319,2.7434c6.2194,19.7349,14.0272,38.7919,24.6583,56.5825
		c7.1135,11.9039,15.5203,22.8503,26.3737,31.6362c17.2572,13.9695,36.4657,16.7958,57.1079,8.9845
		c31.1271-11.7792,60.9321-26.1204,87.2382-46.8752c19.8269-15.6433,36.5391-33.9493,47.1423-57.1876
		c15.1355-33.1714,11.6792-65.7311-3.765-97.7289c-9.4673-19.6147-21.8174-37.3209-36.5325-53.3458
		c-2.2714-2.4734-1.5466-3.666,0.4497-5.597c36.458-35.2649,69.8883-73.1646,99.5171-114.3816
		c46.1405-64.187,81.8391-133.4684,102.7052-210.0067c11.9087-43.6825,18.7954-88.0673,20.2175-133.4048
		c2.1892-69.8005-8.5056-137.6094-29.5994-203.964c-7.4391-23.4004-16.2593-46.2785-26.2953-68.6886
		c-0.3184-0.7109-0.4448-1.5076,0.2328-2.9139c3.7035,4.2608,7.5189,8.4301,11.0939,12.7961
		c47.4952,58.0083,81.4117,123.5522,107.2972,193.5442c20.4883,55.3994,34.5232,112.4423,43.6448,170.7539
		c8.6199,55.1022,11.5022,110.5523,9.9604,166.2394c-1.6169,58.3961-8.8674,116.1211-21.8958,173.0881
		c-15.625,68.3224-38.3352,134.1708-70.7905,196.3563c-22.573,43.2499-48.4764,84.4342-78.34,123.218
		c-26.1803,34.0002-54.9419,65.5182-85.8942,95.0376c-18.8602,17.9874-38.7964,34.8575-59.4408,50.8672
		c-26.2003,20.3182-53.3719,39.1704-81.4998,56.7119c-34.0487,21.2341-69.3571,40.0509-105.7213,56.9995
		c-28.2742,13.1779-56.9296,25.4191-86.2019,36.1437c-31.9333,11.6995-64.1594,22.516-96.891,31.8862
		c-36.2574,10.3795-72.918,19.0527-109.7834,26.7712c-38.0695,7.9703-76.4404,14.3146-115.0245,19.5492
		c-37.1041,5.0336-74.3228,8.7688-111.5717,12.2365c-25.8364,2.4055-51.7694,3.8749-77.6841,5.3149
		c-44.7419,2.4861-89.5314,3.7271-134.3381,2.7251c-40.7574-0.9114-81.4599-2.978-122.0787-6.772
		c-37.9298-3.5426-75.6579-8.5448-113.1772-14.9763c-39.8026-6.8229-79.1495-15.7465-117.95-27.1022
		c-43.6774-12.7828-86.5136-27.8107-128.0462-46.436c-72.0583-32.3145-138.3557-73.6057-197.6675-126.0266
		c-70.763-62.5416-126.4652-136.4419-167.9416-221.1023c-29.3931-59.9963-50.5703-122.9222-64.0735-188.3205
		c-9.4282-45.6625-15.5542-91.7921-15.6671-138.5536c-0.0036-1.4864-0.0005-2.9728-0.0005-4.4591
		C24.7239,793.7393,25.1856,793.5844,25.6474,793.4296z"/>
	<path d="M1366.759,799.0947c-83.4526-0.3951-148.3717-32.0082-200.809-90.2496c-47.1841-52.4065-75.9684-114.6973-95.3571-181.7374
		c-16.4969-57.0416-23.24-115.3903-20.983-174.6626c1.641-43.0934,8.4528-85.3967,23.7897-125.9434
		c5.286-13.9752,15.8253-24.5559,25.766-35.1968c34.4862-36.9152,77.3743-57.8084,127.1656-64.661
		c36.8909-5.0772,73.3734-1.6056,109.3804,7.1056c76.2642,18.4506,142.8389,55.7823,202.8248,105.4803
		c48.3597,40.0654,89.4198,86.5534,120.6106,141.297c29.1539,51.1688,45.868,105.7512,43.3066,165.2429
		c-1.0796,25.0745-5.2789,49.7496-14.7767,73.0244c-5.024,12.3116-14.6387,22.0931-23.2167,32.2297
		c-38.1135,45.0402-85.318,78.2499-137.2179,105.3946c-34.3899,17.9866-70.5907,30.697-108.7174,37.7547
		C1400.0287,797.5969,1381.3431,799.71,1366.759,799.0947z M1276.8879,603.9717c0.2607,19.8146,3.2268,39.1745,10.9314,57.5183
		c5.1919,12.361,11.7694,23.9511,23.5358,31.4988c8.4664,5.4312,16.942,5.2555,25.1919-0.4901
		c5.9135-4.1184,9.8094-9.9178,12.7268-16.3297c9.7627-21.4572,10.9825-44.0599,8.1721-67.0175
		c-2.4918-20.3538-8.0323-39.7674-20.1434-56.7457c-5.1138-7.1689-11.3009-13.3125-20.0459-15.6829
		c-11.16-3.025-21.4509,2.8051-28.7209,15.6972C1279.5056,568.4338,1277.3828,586.0144,1276.8879,603.9717z"/>
	<path d="M1019.458,681.957c-1.61,57.7856-11.1733,111.4958-34.2512,162.2709c-12.8378,28.2451-29.5569,53.8784-51.6574,75.9263
		c-9.6353,9.6124-22.197,12.399-34.2941,16.006c-50.0061,14.9109-99.9761,11.392-149.5637-2.1101
		c-49.299-13.4235-94.8788-34.7043-134.1671-67.8807c-50.6852-42.8003-79.7467-96.5529-80.0666-163.9484
		c-0.197-41.5056,10.5757-80.6817,27.6777-118.2003c29.4854-64.6857,72.6949-118.8125,128.4205-162.6001
		c15.3652-12.0736,34.5652-18.3442,53.2146-24.5421c39.5907-13.1574,79.6237-16.869,120.1849-4.6133
		c37.0219,11.1862,66.0262,33.7505,89.3914,63.9966c29.7298,38.4851,46.3199,82.7253,56.1185,129.8429
		C1017.2014,618.4948,1019.6665,651.2889,1019.458,681.957z M914.9131,773.7051c-0.0461-17.8648-1.6658-32.0743-5.7512-45.8458
		c-4.9581-16.7136-11.4165-32.7814-25.6679-44.0706c-11.7921-9.341-23.9393-8.0913-33.9977,3.1356
		c-5.1886,5.7915-8.6182,12.6471-10.9225,19.9805c-9.1907,29.2485-7.5162,58.4023,1.5215,87.3121
		c4.6135,14.7574,11.203,28.5383,23.5458,38.6058c12.0209,9.8049,25.2554,8.4088,35.0973-3.5865
		c2.1992-2.6802,4.1063-5.6718,5.7289-8.7415C912.7846,804.7585,914.5858,787.6242,914.9131,773.7051z"/>
	<path d="M1060.9297,1109.6937c1.5975-41.9576,3.1563-83.0292,4.7267-124.1c1.3093-34.2479,2.6622-68.494,3.9097-102.7441
		c0.1472-4.0428,1.1588-6.2936,5.71-7.59c33.217-9.4632,66.3251-19.3096,99.4465-29.1065c3.4327-1.0154,5.7267-0.442,8.0408,2.6041
		c48.903,64.3734,97.9113,128.6666,146.8914,192.9813c0.8762,1.1506,2.6993,2.2542,1.9752,3.7146
		c-0.7209,1.4541-2.7156,0.6229-4.0956,0.548c-50.1869-2.7208-100.3717-5.4833-150.5532-8.3043
		c-3.2809-0.1844-5.9542,0.4155-8.7587,2.4357c-33.5864,24.1934-67.2753,48.2448-100.9773,72.277
		c-1.7623,1.2568-3.4724,4.1722-5.6642,2.9362C1059.3534,1114.0892,1061.0449,1111.0515,1060.9297,1109.6937z"/>
	<path d="M1363.3685,81.9905c-14.962-3.6279-29.7013-7.3979-44.5327-10.7617c-46.6847-10.5881-93.882-15.9004-141.7421-11.7689
		c-48.6687,4.2012-93.5342,18.6064-130.6338,51.9826c-21.9509,19.7479-37.9084,43.5643-47.0568,71.7907
		c-0.4564,1.4081-0.1848,4.0254-2.3438,3.79c-1.8247-0.1989-1.6334-2.6601-2.0078-4.2147
		c-11.0788-45.9877,1.7941-84.9771,35.6156-117.0323c27.7228-26.2747,61.851-39.7209,99.1653-45.345
		c67.2388-10.1345,129.703,6.0242,189.6628,35.2776c13.7603,6.7134,27.035,14.3204,39.9562,22.532
		C1360.885,79.1517,1362.9104,79.5824,1363.3685,81.9905z"/>
	<path d="M915.8109,297.6773c-15.102-8.2415-30.0265-15.0786-45.7221-20.1075c-40.5008-12.9766-81.3643-13.8306-122.6105-3.8509
		c-50.5667,12.2349-94.037,37.9438-134.001,70.3232c-21.252,17.2186-40.6381,36.3783-59.4875,56.8581
		c0.7909-3.0026,1.449-6.0476,2.3924-9.0016c20.4037-63.8883,61.9907-109.4922,121.253-139.4993
		c38.9939-19.7443,80.3939-29.8706,124.2621-27.7979c30.2521,1.4294,58.7899,8.7133,83.4968,27.5135
		C899.5854,262.9136,913.4941,282.9449,915.8109,297.6773z"/>
</g>
</svg>
