<?xml version="1.0" encoding="UTF-8" standalone="no"?>
<svg
   xmlns:dc="http://purl.org/dc/elements/1.1/"
   xmlns:cc="http://creativecommons.org/ns#"
   xmlns:rdf="http://www.w3.org/1999/02/22-rdf-syntax-ns#"
   xmlns:svg="http://www.w3.org/2000/svg"
   xmlns="http://www.w3.org/2000/svg"
   xmlns:sodipodi="http://sodipodi.sourceforge.net/DTD/sodipodi-0.dtd"
   xmlns:inkscape="http://www.inkscape.org/namespaces/inkscape"
   version="1.1"
   id="Layer_1"
   x="0px"
   y="0px"
   viewBox="0 0 2210.5986 1585.3898"
   enable-background="new 0 0 2210.5986 1585.3898"
   xml:space="preserve"
   sodipodi:docname="logo-2.svg"
   inkscape:version="0.92.5 (2060ec1f9f, 2020-04-08)"><metadata
   id="metadata3791"><rdf:RDF><cc:Work
       rdf:about=""><dc:format>image/svg+xml</dc:format><dc:type
         rdf:resource="http://purl.org/dc/dcmitype/StillImage" /><dc:title></dc:title></cc:Work></rdf:RDF></metadata><defs
   id="defs3789" /><sodipodi:namedview
   pagecolor="#ffffff"
   bordercolor="#666666"
   borderopacity="1"
   objecttolerance="10"
   gridtolerance="10"
   guidetolerance="10"
   inkscape:pageopacity="0"
   inkscape:pageshadow="2"
   inkscape:window-width="2488"
   inkscape:window-height="1376"
   id="namedview3787"
   showgrid="false"
   inkscape:zoom="0.75565014"
   inkscape:cx="1105.2993"
   inkscape:cy="792.69489"
   inkscape:window-x="1152"
   inkscape:window-y="27"
   inkscape:window-maximized="1"
   inkscape:current-layer="Layer_1" />
<g
   id="g3784">
	<path
   d="M25.6474,793.4296c3.8385,7.4154,7.5958,14.8743,11.5286,22.2394c26.9583,50.4857,59.5088,97.144,96.2023,141.0065   c65.8274,78.6884,142.7308,144.4372,230.372,197.6736c2.9702,1.8042,3.7267,3.9907,3.868,7.2738   c0.943,21.9207,0.185,43.9502,3.9276,65.7013c4.3645,25.366,17.6148,42.151,43.5268,49.2109   c22.6975,6.1844,43.675,17.3257,65.2957,26.5665c21.5294,9.2015,43.1012,18.3524,65.907,24.026   c15.5735,3.8745,31.3421,6.3873,47.361,3.0304c19.9461-4.1799,31.954-17.3323,39.0328-35.6476   c1.8538-4.7965,3.3444-9.7715,4.5145-14.7784c0.6404-2.7407,1.3527-3.41,4.2625-2.8251   c41.3158,8.3042,83.003,14.0212,125.0326,17.0316c4.4335,0.3176,5.4326,1.9032,6.0232,5.641   c3.5468,22.4487,9.1821,44.241,20.9596,64.0071c11.4715,19.2526,27.7506,30.1735,50.7767,30.6768   c23.832,0.5211,47.2326,5.787,70.9773,7.402c21.2441,1.4446,42.4791,2.6716,63.4228-3.2656   c27.4915-7.7935,43.213-26.0544,48.785-53.6224c3.7736-18.6702,2.9874-37.4241,0.2909-56.1089   c-0.8486-5.8806-0.532-8.8889,6.6743-10.0581c36.9423-5.9934,73.3356-14.6758,109.4021-24.5822   c23.2177-6.3773,46.1774-13.7103,69.16-20.9111c3.9891-1.2498,4.631-0.5004,4.9136,3.3807   c1.4436,19.8318,4.5067,39.3607,12.799,57.676c13.3867,29.5686,34.1779,41.3414,66.3228,37.4094   c36.3982-4.4524,71.9418-12.6423,106.2076-25.7836c28.3556-10.8746,54.9807-24.7758,76.1387-47.3077   c25.3727-27.0204,31.3016-58.3116,20.3055-93.288c-4.3713-13.9045-10.7888-26.8528-18.412-39.2007   c-2.068-3.3494-1.8607-4.9767,1.7764-6.7899c53.4355-26.6384,105.4813-55.7697,155.9604-87.662   c4.3679-2.7594,4.6759,0.0273,5.5319,2.7434c6.2194,19.7349,14.0272,38.7919,24.6583,56.5825   c7.1135,11.9039,15.5203,22.8503,26.3737,31.6362c17.2572,13.9695,36.4657,16.7958,57.1079,8.9845   c31.1271-11.7792,60.9321-26.1204,87.2382-46.8752c19.8269-15.6433,36.5391-33.9493,47.1423-57.1876   c15.1355-33.1714,11.6792-65.7311-3.765-97.7289c-9.4673-19.6147-21.8174-37.3209-36.5325-53.3458   c-2.2714-2.4734-1.5466-3.666,0.4497-5.597c36.458-35.2649,69.8883-73.1646,99.5171-114.3816   c46.1405-64.187,81.8391-133.4684,102.7052-210.0067c11.9087-43.6825,18.7954-88.0673,20.2175-133.4048   c2.1892-69.8005-8.5056-137.6094-29.5994-203.964c-7.4391-23.4004-16.2593-46.2785-26.2953-68.6886   c-0.3184-0.7109-0.4448-1.5076,0.2328-2.9139c3.7035,4.2608,7.5189,8.4301,11.0939,12.7961   c47.4952,58.0083,81.4117,123.5522,107.2972,193.5442c20.4883,55.3994,34.5232,112.4423,43.6448,170.7539   c8.6199,55.1022,11.5022,110.5523,9.9604,166.2394c-1.6169,58.3961-8.8674,116.1211-21.8958,173.0881   c-15.625,68.3224-38.3352,134.1708-70.7905,196.3563c-22.573,43.2499-48.4764,84.4342-78.34,123.218   c-26.1803,34.0002-54.9419,65.5182-85.8942,95.0376c-18.8602,17.9874-38.7964,34.8575-59.4408,50.8672   c-26.2003,20.3182-53.3719,39.1704-81.4998,56.7119c-34.0487,21.2341-69.3571,40.0509-105.7213,56.9995   c-28.2742,13.1779-56.9296,25.4191-86.2019,36.1437c-31.9333,11.6995-64.1594,22.516-96.891,31.8862   c-36.2574,10.3795-72.918,19.0527-109.7834,26.7712c-38.0695,7.9703-76.4404,14.3146-115.0245,19.5492   c-37.1041,5.0336-74.3228,8.7688-111.5717,12.2365c-25.8364,2.4055-51.7694,3.8749-77.6841,5.3149   c-44.7419,2.4861-89.5314,3.7271-134.3381,2.7251c-40.7574-0.9114-81.4599-2.978-122.0787-6.772   c-37.9298-3.5426-75.6579-8.5448-113.1772-14.9763c-39.8026-6.8229-79.1495-15.7465-117.95-27.1022   c-43.6774-12.7828-86.5136-27.8107-128.0462-46.436c-72.0583-32.3145-138.3557-73.6057-197.6675-126.0266   c-70.763-62.5416-126.4652-136.4419-167.9416-221.1023c-29.3931-59.9963-50.5703-122.9222-64.0735-188.3205   c-9.4282-45.6625-15.5542-91.7921-15.6671-138.5536c-0.0036-1.4864-0.0005-2.9728-0.0005-4.4591   C24.7239,793.7393,25.1856,793.5844,25.6474,793.4296z"
   id="path3772" />
	<path
   d="M1366.759,799.0947c-83.4526-0.3951-148.3717-32.0082-200.809-90.2496c-47.1841-52.4065-75.9684-114.6973-95.3571-181.7374   c-16.4969-57.0416-23.24-115.3903-20.983-174.6626c1.641-43.0934,8.4528-85.3967,23.7897-125.9434   c5.286-13.9752,15.8253-24.5559,25.766-35.1968c34.4862-36.9152,77.3743-57.8084,127.1656-64.661   c36.8909-5.0772,73.3734-1.6056,109.3804,7.1056c76.2642,18.4506,142.8389,55.7823,202.8248,105.4803   c48.3597,40.0654,89.4198,86.5534,120.6106,141.297c29.1539,51.1688,45.868,105.7512,43.3066,165.2429   c-1.0796,25.0745-5.2789,49.7496-14.7767,73.0244c-5.024,12.3116-14.6387,22.0931-23.2167,32.2297   c-38.1135,45.0402-85.318,78.2499-137.2179,105.3946c-34.3899,17.9866-70.5907,30.697-108.7174,37.7547   C1400.0287,797.5969,1381.3431,799.71,1366.759,799.0947z M1276.8879,603.9717c0.2607,19.8146,3.2268,39.1745,10.9314,57.5183   c5.1919,12.361,11.7694,23.9511,23.5358,31.4988c8.4664,5.4312,16.942,5.2555,25.1919-0.4901   c5.9135-4.1184,9.8094-9.9178,12.7268-16.3297c9.7627-21.4572,10.9825-44.0599,8.1721-67.0175   c-2.4918-20.3538-8.0323-39.7674-20.1434-56.7457c-5.1138-7.1689-11.3009-13.3125-20.0459-15.6829   c-11.16-3.025-21.4509,2.8051-28.7209,15.6972C1279.5056,568.4338,1277.3828,586.0144,1276.8879,603.9717z"
   id="path3774" />
	<path
   d="M1019.458,681.957c-1.61,57.7856-11.1733,111.4958-34.2512,162.2709c-12.8378,28.2451-29.5569,53.8784-51.6574,75.9263   c-9.6353,9.6124-22.197,12.399-34.2941,16.006c-50.0061,14.9109-99.9761,11.392-149.5637-2.1101   c-49.299-13.4235-94.8788-34.7043-134.1671-67.8807c-50.6852-42.8003-79.7467-96.5529-80.0666-163.9484   c-0.197-41.5056,10.5757-80.6817,27.6777-118.2003c29.4854-64.6857,72.6949-118.8125,128.4205-162.6001   c15.3652-12.0736,34.5652-18.3442,53.2146-24.5421c39.5907-13.1574,79.6237-16.869,120.1849-4.6133   c37.0219,11.1862,66.0262,33.7505,89.3914,63.9966c29.7298,38.4851,46.3199,82.7253,56.1185,129.8429   C1017.2014,618.4948,1019.6665,651.2889,1019.458,681.957z M914.9131,773.7051c-0.0461-17.8648-1.6658-32.0743-5.7512-45.8458   c-4.9581-16.7136-11.4165-32.7814-25.6679-44.0706c-11.7921-9.341-23.9393-8.0913-33.9977,3.1356   c-5.1886,5.7915-8.6182,12.6471-10.9225,19.9805c-9.1907,29.2485-7.5162,58.4023,1.5215,87.3121   c4.6135,14.7574,11.203,28.5383,23.5458,38.6058c12.0209,9.8049,25.2554,8.4088,35.0973-3.5865   c2.1992-2.6802,4.1063-5.6718,5.7289-8.7415C912.7846,804.7585,914.5858,787.6242,914.9131,773.7051z"
   id="path3776" />
	<path
   d="M1060.9297,1109.6937c1.5975-41.9576,3.1563-83.0292,4.7267-124.1c1.3093-34.2479,2.6622-68.494,3.9097-102.7441   c0.1472-4.0428,1.1588-6.2936,5.71-7.59c33.217-9.4632,66.3251-19.3096,99.4465-29.1065c3.4327-1.0154,5.7267-0.442,8.0408,2.6041   c48.903,64.3734,97.9113,128.6666,146.8914,192.9813c0.8762,1.1506,2.6993,2.2542,1.9752,3.7146   c-0.7209,1.4541-2.7156,0.6229-4.0956,0.548c-50.1869-2.7208-100.3717-5.4833-150.5532-8.3043   c-3.2809-0.1844-5.9542,0.4155-8.7587,2.4357c-33.5864,24.1934-67.2753,48.2448-100.9773,72.277   c-1.7623,1.2568-3.4724,4.1722-5.6642,2.9362C1059.3534,1114.0892,1061.0449,1111.0515,1060.9297,1109.6937z"
   id="path3778" />
	<path
   d="M1363.3685,81.9905c-14.962-3.6279-29.7013-7.3979-44.5327-10.7617c-46.6847-10.5881-93.882-15.9004-141.7421-11.7689   c-48.6687,4.2012-93.5342,18.6064-130.6338,51.9826c-21.9509,19.7479-37.9084,43.5643-47.0568,71.7907   c-0.4564,1.4081-0.1848,4.0254-2.3438,3.79c-1.8247-0.1989-1.6334-2.6601-2.0078-4.2147   c-11.0788-45.9877,1.7941-84.9771,35.6156-117.0323c27.7228-26.2747,61.851-39.7209,99.1653-45.345   c67.2388-10.1345,129.703,6.0242,189.6628,35.2776c13.7603,6.7134,27.035,14.3204,39.9562,22.532   C1360.885,79.1517,1362.9104,79.5824,1363.3685,81.9905z"
   id="path3780" />
	<path
   d="M915.8109,297.6773c-15.102-8.2415-30.0265-15.0786-45.7221-20.1075c-40.5008-12.9766-81.3643-13.8306-122.6105-3.8509   c-50.5667,12.2349-94.037,37.9438-134.001,70.3232c-21.252,17.2186-40.6381,36.3783-59.4875,56.8581   c0.7909-3.0026,1.449-6.0476,2.3924-9.0016c20.4037-63.8883,61.9907-109.4922,121.253-139.4993   c38.9939-19.7443,80.3939-29.8706,124.2621-27.7979c30.2521,1.4294,58.7899,8.7133,83.4968,27.5135   C899.5854,262.9136,913.4941,282.9449,915.8109,297.6773z"
   id="path3782" />
</g>
<path
   style="fill:#000000;stroke-width:1.32336378"
   d="m 1319.0876,695.53153 c -12.0718,-2.76372 -25.7426,-19.75694 -33.0394,-41.06892 -15.4633,-45.1639 -8.0605,-100.9672 15.2028,-114.6004 4.8226,-2.82622 7.0205,-3.31852 12.4755,-2.79436 8.9872,0.86356 16.0889,6.21661 24.4584,18.43597 24.6694,36.01699 26.3502,104.88841 3.2031,131.25144 -6.7962,7.74042 -14.1624,10.63938 -22.3004,8.77627 z"
   id="path3815"
   inkscape:connector-curvature="0" /><path
   style="fill:#000000;stroke-width:1.32336378"
   d="m 1348.0042,797.9585 c -83.1024,-6.00519 -148.8993,-43.66558 -203.0274,-116.20738 -34.741,-46.55956 -61.8313,-106.3763 -78.7913,-173.97547 -10.4247,-41.55079 -14.574,-73.76156 -15.53,-120.55942 -1.2628,-61.81294 4.0777,-102.50848 19.5842,-149.23588 6.8542,-20.65437 11.8846,-28.18092 32.919,-49.25411 19.613,-19.64906 34.6415,-30.60981 56.2662,-41.03661 35.4122,-17.07475 68.0021,-23.55465 111.1625,-22.10262 82.1819,2.76481 173.7418,40.13463 254.7476,103.97431 64.6511,50.95078 114.7879,111.33828 145.7258,175.52032 21.0297,43.62699 30.4738,83.6139 30.4738,129.02797 0,35.57159 -5.4261,64.87906 -16.0483,86.68032 -13.1019,26.89042 -63.1134,75.70072 -107.2168,104.64164 -59.4886,39.03679 -113.88,61.2319 -171.8354,70.1197 -13.1106,2.0106 -45.4699,3.34375 -58.4299,2.40723 z m -11.0673,-105.37608 c 5.1508,-3.44232 7.43,-6.28234 11.4172,-14.22616 7.5485,-15.03934 10.4175,-28.01916 10.5305,-47.6411 0.1095,-19.02156 -1.8088,-33.24043 -6.5164,-48.30277 -15.2485,-48.78834 -48.1044,-62.24769 -65.9562,-27.0188 -7.0598,13.93191 -9.1746,25.19949 -9.1692,48.8543 0,15.50457 0.6452,24.72996 2.2134,31.81855 10.4365,47.17795 35.1277,71.45472 57.4807,56.51598 z"
   id="path3819"
   inkscape:connector-curvature="0" /><path
   style="fill:#000000;stroke-width:1.32336378"
   d="m 870.60225,836.51094 c -5.97623,-2.59755 -16.16848,-13.15221 -21.18874,-21.94216 -13.08975,-22.91878 -19.20037,-61.74305 -14.21626,-90.32406 11.19478,-64.19561 56.38049,-59.51039 74.33603,7.70777 3.18073,11.90737 3.54558,15.62092 3.64048,37.05418 0.11301,25.5217 -1.16956,33.44373 -7.73874,47.79992 -3.53757,7.73093 -11.39733,16.98157 -16.80368,19.77731 -4.61953,2.38884 -12.43794,2.35722 -18.02909,-0.0729 z"
   id="path3821"
   inkscape:connector-curvature="0" /><path
   style="fill:#ffffff;stroke-width:1.32336378"
   d="m 809.36621,944.35032 c -44.09953,-3.97266 -97.65036,-20.04953 -137.60086,-41.3101 -28.43112,-15.13028 -50.10741,-31.11257 -72.18472,-53.22303 -22.88962,-22.92399 -36.02919,-41.64774 -47.0367,-67.02682 -17.9878,-41.47295 -21.10436,-93.28316 -8.57973,-142.631 12.11328,-47.72711 39.57326,-101.11393 75.19349,-146.1888 12.993,-16.44172 50.28885,-53.94478 66.50298,-66.87247 15.33744,-12.2287 29.76952,-19.61673 54.33124,-27.81313 32.84966,-10.96214 43.00349,-12.67758 74.69673,-12.61964 26.08194,0.0477 27.7279,0.20868 42.64809,4.17175 85.02546,22.58433 143.43197,108.66854 158.71237,233.92295 2.6483,21.70835 2.2656,83.93712 -0.6512,105.8691 -9.3982,70.66915 -32.37414,129.60168 -67.09231,172.08965 -13.56035,16.59509 -22.19687,23.60779 -34.59742,28.09244 -12.61648,4.56275 -34.52633,10.06197 -48.07003,12.06526 -13.71378,2.02842 -41.91602,2.76708 -56.27193,1.47384 z m 80.64042,-107.13238 c 14.251,-7.27033 23.51142,-29.47356 24.86161,-59.6094 1.64028,-36.61059 -7.76136,-69.57896 -25.15548,-88.2118 -39.55427,-42.37113 -74.07678,33.43759 -49.11258,107.84738 4.49918,13.41054 9.1313,21.72091 16.77861,30.10205 10.82846,11.86756 22.05673,15.26474 32.62784,9.87177 z"
   id="path3823"
   inkscape:connector-curvature="0" /><path
   style="fill:#ffffff;stroke-width:1.32336378"
   d="m 1346.6809,797.89435 c -81.7511,-5.8425 -148.0386,-44.06657 -202.0899,-116.53318 -50.7979,-68.10466 -85.415,-166.3342 -93.14,-264.29401 -2.0008,-25.37245 -0.8288,-85.71933 2.0705,-106.60602 5.779,-41.63283 17.395,-82.11561 28.0536,-97.76908 7.2431,-10.63734 36.236,-39.16636 48.9976,-48.21346 23.3163,-16.5298 51.1718,-28.34986 82.3712,-34.95291 15.1366,-3.20352 19.3347,-3.5243 47.0566,-3.59556 33.0387,-0.0849 44.6912,1.23239 75.5809,8.54442 82.569,19.54522 166.1494,67.59686 235.9026,135.62399 43.8323,42.74768 74.5048,84.09508 98.1702,132.33638 22.3515,45.56288 31.8757,84.89657 31.8833,131.67469 0.01,35.47029 -5.3988,64.72336 -16.0183,86.70023 -10.3637,21.44754 -48.576,61.49432 -85.46,89.56278 -10.1625,7.73357 -39.12,26.57412 -52.8887,34.4109 -68.4697,38.97101 -138.5553,57.5371 -200.4896,53.11083 z M 1336.0631,693.0815 c 14.4894,-9.73121 22.463,-32.63176 22.5051,-64.6353 0.038,-28.88213 -6.4418,-54.29003 -18.5658,-72.7992 -11.5147,-17.57904 -24.5468,-23.70527 -37.709,-17.72655 -23.0217,10.45732 -32.7629,64.46144 -19.7361,109.4144 11.3131,39.03911 34.2691,58.66615 53.5058,45.74665 z"
   id="path3825"
   inkscape:connector-curvature="0" /><path
   style="fill:#ffffff;stroke-width:1.32336378"
   d="m 555.35095,397.57775 c -0.12025,-2.56381 9.00828,-25.98245 14.68028,-37.66128 22.57966,-46.49221 60.0599,-82.99963 111.14601,-108.26112 48.58143,-24.02296 104.16403,-32.37341 150.54431,-22.61702 33.74371,7.09821 59.65571,23.73614 74.78553,48.0193 3.30562,5.30548 9.24735,18.8465 8.26974,18.8465 -0.24686,0 -7.23545,-3.21089 -15.53022,-7.13533 -19.72177,-9.3308 -40.13639,-15.76946 -61.3991,-19.36494 -23.58974,-3.98897 -58.2103,-3.19999 -82.04855,1.86983 -64.67269,13.7543 -130.15575,53.55918 -188.20688,114.40444 -6.70973,7.03268 -12.21824,12.38752 -12.24112,11.89962 z"
   id="path3827"
   inkscape:connector-curvature="0" /><path
   style="fill:#ffffff;stroke-width:1.32336378"
   d="m 994.5161,177.79392 c -2.42054,-10.91006 -2.40535,-41.68951 0.0253,-51.28035 2.7002,-10.65436 9.546,-26.24216 15.4528,-35.185743 7.2396,-10.961614 24.4344,-28.644993 36.8569,-37.904244 36.0363,-26.860036 91.5989,-39.5065 149.628,-34.056436 38.4255,3.608906 82.6497,17.100347 124.2288,37.898362 15.9046,7.955555 39.5843,21.670423 38.7888,22.465865 -0.2694,0.269395 -10.2604,-1.855079 -22.2023,-4.721054 -54.9564,-13.189159 -80.9595,-16.61515 -126.2583,-16.634944 -35.3404,-0.01544 -48.5258,1.11385 -71.4617,6.120461 -59.3309,12.951208 -107.1624,47.741433 -130.9398,95.238983 -3.2406,6.47354 -6.9248,15.04608 -8.1869,19.0501 -1.26219,4.00401 -2.70025,7.28002 -3.19572,7.28002 -0.49547,0 -1.72663,-3.72196 -2.73589,-8.27102 z"
   id="path3829"
   inkscape:connector-curvature="0" /><path
   style="fill:#ffffff;stroke-width:1.32336378"
   d="M 922.54278,1566.2109 C 753.25527,1559.8941 610.41258,1531.1906 485.26513,1478.3423 255.39228,1381.2697 100.84585,1197.5446 44.605084,954.48481 36.238651,918.32701 30.523308,883.54795 27.390723,849.73186 c -1.779475,-19.20935 -3.340392,-54.91959 -2.400568,-54.91959 0.408205,0 5.185654,8.48607 10.616553,18.85793 48.273619,92.19236 126.097782,186.619 214.499622,260.2594 30.48268,25.3927 62.16962,48.4703 98.35848,71.6345 10.42142,6.6707 17.75302,12.2488 18.17819,13.8306 0.3919,1.4581 0.72069,8.9663 0.73063,16.685 0.024,18.6044 2.31182,46.1578 4.68605,56.4352 2.68331,11.6152 8.5811,22.4615 16.06425,29.543 8.88367,8.4067 11.3241,9.7114 29.81361,15.9391 8.95621,3.0166 28.19429,10.7137 42.75129,17.1047 62.99395,27.6562 85.6611,35.065 111.82424,36.5502 33.6176,1.9082 52.62394,-11.3166 62.9735,-43.8178 2.90815,-9.1326 3.06626,-9.3308 7.38417,-9.2599 2.42681,0.04 15.42939,1.9694 28.89461,4.2879 28.78432,4.9562 48.61415,7.5814 76.57608,10.1376 11.20768,1.0245 20.9584,2.4436 21.66828,3.1535 0.70986,0.7099 2.44113,7.0458 3.84725,14.0798 6.85515,34.2923 19.6861,60.5959 35.40709,72.5849 9.79991,7.4735 17.53636,10.1323 33.80404,11.6178 8.04643,0.7347 27.43341,2.8969 43.08219,4.8048 37.97341,4.6298 73.57718,4.893 88.92548,0.6575 29.04004,-8.0139 44.86964,-23.7419 52.25534,-51.9197 2.4496,-9.3457 3.2576,-41.4465 1.4157,-56.2429 -0.5436,-4.3671 -0.4603,-8.7625 0.1851,-9.7675 0.7152,-1.1137 10.1461,-3.5128 24.1473,-6.1429 41.8559,-7.8625 82.6829,-18.2199 133.3672,-33.834 16.3175,-5.0269 29.8147,-8.9921 29.9938,-8.8117 0.1791,0.1804 1.0408,6.5809 1.9149,14.2234 4.6308,40.4887 19.0942,69.1325 40.0482,79.3125 11.4942,5.5842 23.3918,7.2014 39.2096,5.3295 56.938,-6.7379 118.472,-26.4134 152.5982,-48.7931 38.6129,-25.3221 56.9557,-55.9449 54.7658,-91.4302 -1.2032,-19.4961 -6.6499,-36.3341 -18.9409,-58.5547 -3.1672,-5.7259 -5.4401,-10.9261 -5.0508,-11.5559 0.3892,-0.6299 13.3559,-7.6494 28.8147,-15.599 35.0415,-18.0197 66.2838,-35.5334 102.4664,-57.4398 15.423,-9.3377 28.5986,-16.9776 29.2791,-16.9776 0.6804,0 3.1583,5.5085 5.5065,12.2411 23.0027,65.9533 57.6379,99.1851 95.0186,91.1684 18.1074,-3.8834 58.8513,-23.1107 82.7506,-39.0506 46.3776,-30.9322 72.3791,-71.1108 72.3791,-111.84349 0,-31.81122 -15.2092,-66.85751 -43.8592,-101.06442 l -7.7511,-9.25445 18.8574,-19.42088 c 39.6992,-40.88528 70.1136,-78.10661 98.4898,-120.53253 90.8288,-135.80059 124.7998,-286.14219 98.9443,-437.88743 -7.1952,-42.22928 -23.7203,-99.38727 -39.6412,-137.11411 -8.4756,-20.08424 -8.5601,-20.84006 -1.4049,-12.57196 25.6035,29.58588 54.0667,73.5641 76.0337,117.47874 60.8208,121.58749 91.4676,262.58733 88.3704,406.5733 -1.8155,84.40573 -12.1425,153.56253 -34.6808,232.25034 -14.5415,50.76825 -29.4323,89.54085 -51.0505,132.92499 -60.239,120.8902 -138.9132,215.0319 -246.8922,295.4317 -159.3334,118.6377 -369.079,192.9897 -624.3761,221.3333 -113.5614,12.6076 -215.4086,17.2235 -305.69702,13.8545 z"
   id="path3831"
   inkscape:connector-curvature="0" /><path
   style="fill:#ffffff;stroke-width:1.32336378"
   d="m 1061.883,1114.3505 c -0.4036,-0.4036 -0.4915,-4.4273 -0.1953,-8.9417 0.2962,-4.5144 2.3456,-57.04 4.5543,-116.72374 3.5871,-96.93055 4.2545,-108.73855 6.2517,-110.60194 1.2298,-1.14735 7.5955,-3.62227 14.1462,-5.49982 6.5506,-1.87754 29.7001,-8.63122 51.4431,-15.00817 29.3334,-8.60307 40.0799,-11.24942 41.6529,-10.25716 2.0139,1.27031 151.0289,196.21743 151.0531,197.61343 0.01,0.3658 -34.9749,-1.3143 -77.7361,-3.7335 -51.4543,-2.911 -78.9138,-3.9824 -81.1958,-3.168 -2.7819,0.9927 -31.5804,21.2984 -106.9237,75.3912 -1.2742,0.9147 -2.6468,1.333 -3.0504,0.9294 z"
   id="path3833"
   inkscape:connector-curvature="0" /></svg>